<?xml version="1.0" encoding="iso-8859-1"?>
<!-- Uploaded to: SVG Repo, www.svgrepo.com, Generator: SVG Repo Mixer Tools -->
<svg version="1.1" id="Layer_1" xmlns="http://www.w3.org/2000/svg" xmlns:xlink="http://www.w3.org/1999/xlink" 
	 viewBox="0 0 512.001 512.001" xml:space="preserve">
<g>
	<path style="fill:#EFEFEF;" d="M453.583,125.994c-50.055,0-100.108,0-150.162,0c1.929,121.831-10.792,248.854-47.419,370.685
		c81.666,0,163.335,0,245.001,0C464.375,374.849,451.653,247.825,453.583,125.994z"/>
	<path style="fill:#EFEFEF;" d="M208.582,125.994c-50.055,0-100.108,0-150.162,0C60.35,247.825,47.629,374.848,11.002,496.68
		c81.666,0,163.335,0,245.001,0C219.374,374.849,206.652,247.825,208.582,125.994z"/>
</g>
<path style="fill:#F7941E;" d="M347.862,267.889L347.862,267.889c-40.853,0-73.972,33.119-73.972,73.972V496.68h147.944V341.861
	C421.834,301.007,388.716,267.889,347.862,267.889z"/>
<rect x="111.503" y="364.681" style="fill:#0EDDF0;" width="241.99" height="131.995"/>
<rect x="111.503" y="408.68" style="fill:#FFDE17;" width="120.995" height="43.998"/>
<g>
	<path style="fill:#231F20;" d="M511.535,493.513c-33.264-110.647-49.062-234.24-46.955-367.345c0.046-2.947-1.091-5.789-3.159-7.89
		c-2.068-2.101-4.892-3.283-7.839-3.283H303.421c-2.948,0-5.771,1.182-7.839,3.283c-2.068,2.101-3.205,4.943-3.159,7.89
		c0.857,54.113-1.253,106.651-6.287,157.389c-14.392,15.229-23.244,35.746-23.244,58.303v11.825h-28.009
		c-11.416-71.964-16.56-148.039-15.3-227.517c0.046-2.947-1.091-5.789-3.159-7.89c-2.068-2.101-4.892-3.283-7.839-3.283H58.42
		c-2.948,0-5.771,1.182-7.839,3.283c-2.068,2.101-3.205,4.943-3.159,7.89c2.109,133.108-13.69,256.701-46.955,367.344
		c-1.002,3.331-0.368,6.94,1.707,9.73c2.076,2.791,5.348,4.436,8.826,4.436H501c3.478,0,6.752-1.646,8.826-4.436
		C511.903,500.452,512.537,496.843,511.535,493.513z M389.501,210.966h-21.999v-24.337h21.999V210.966z M367.502,232.965h21.999
		v34.869c-6.81-3.845-14.196-6.774-21.999-8.628V232.965z M389.501,136.994v27.636h-21.999v-27.636H389.501z M345.503,136.994
		v119.955c-12.8,0.352-24.898,3.54-35.69,8.97c3.508-41.873,5.113-84.878,4.742-128.925H345.503z M284.89,341.861
		c0-34.723,28.25-62.973,62.973-62.973s62.973,28.249,62.973,62.973V485.68h-46.343V364.685c0-6.075-4.926-11-11-11H284.89V341.861z
		 M122.501,485.68v-21.999h109.996c6.074,0,11-4.924,11-11v-32.999h98.996v21.999h-29.829c-6.074,0-11,4.924-11,11s4.926,11,11,11
		h29.829v21.999H122.501z M342.492,397.683H122.501v-21.999h219.991V397.683z M122.501,279.301H144.5v24.337h-21.999V279.301z
		 M144.5,257.302h-21.999v-24.337H144.5V257.302z M122.501,419.683h98.996v21.999h-98.996V419.683z M122.501,353.685v-28.049H144.5
		v28.049H122.501z M144.5,210.966h-21.999v-24.337H144.5V210.966z M212.616,353.685h-46.117V136.994h30.949
		C196.812,212.443,201.907,284.872,212.616,353.685z M144.5,136.994v27.636h-21.999v-27.636H144.5z M69.553,136.994h30.948V485.68
		H25.68C55.865,379.677,70.611,262.497,69.553,136.994z M432.834,485.68V341.861c0-21.543-8.073-41.224-21.334-56.218V136.994
		h30.947c-1.058,125.501,13.688,242.68,43.874,348.686H432.834z"/>
	<path style="fill:#231F20;" d="M99.562,56.561c-6.116,4.633-15.356,11.635-15.356,25.435c0,6.075,4.926,11,11,11
		c6.074,0,11-4.924,11-11c0-2.412,1.055-3.667,6.643-7.901c6.116-4.633,15.356-11.635,15.356-25.436s-9.241-20.802-15.356-25.435
		c-5.588-4.234-6.643-5.489-6.643-7.901c0-6.075-4.926-11-11-11c-6.074,0-11,4.925-11,11c0,13.8,9.241,20.802,15.356,25.435
		c5.588,4.234,6.643,5.489,6.643,7.901C106.205,51.073,105.149,52.328,99.562,56.561z"/>
	<path style="fill:#231F20;" d="M154.155,56.561c-6.116,4.633-15.356,11.635-15.356,25.435c0,6.075,4.926,11,11,11s11-4.924,11-11
		c0-2.412,1.055-3.667,6.643-7.901c6.116-4.633,15.356-11.635,15.356-25.436s-9.241-20.802-15.356-25.435
		c-5.588-4.234-6.643-5.489-6.643-7.901c0-6.075-4.926-11-11-11s-11,4.925-11,11c0,13.8,9.241,20.802,15.356,25.435
		c5.588,4.234,6.643,5.489,6.643,7.901C160.798,51.073,159.742,52.328,154.155,56.561z"/>
	<path style="fill:#231F20;" d="M344.563,56.561c-6.116,4.633-15.357,11.635-15.357,25.435c0,6.075,4.926,11,11,11s11-4.924,11-11
		c0-2.412,1.055-3.667,6.643-7.901c6.116-4.633,15.356-11.635,15.356-25.436s-9.241-20.802-15.356-25.435
		c-5.588-4.234-6.643-5.489-6.643-7.901c0-6.075-4.926-11-11-11s-11,4.925-11,11c0,13.8,9.241,20.802,15.357,25.435
		c5.588,4.234,6.643,5.489,6.643,7.901C351.206,51.073,350.15,52.328,344.563,56.561z"/>
	<path style="fill:#231F20;" d="M399.155,56.561c-6.116,4.633-15.357,11.635-15.357,25.435c0,6.075,4.926,11,11,11s11-4.924,11-11
		c0-2.412,1.055-3.667,6.643-7.901c6.116-4.633,15.356-11.635,15.356-25.436s-9.241-20.802-15.356-25.435
		c-5.588-4.234-6.643-5.489-6.643-7.901c0-6.075-4.926-11-11-11s-11,4.925-11,11c0,13.8,9.241,20.802,15.357,25.435
		c5.588,4.234,6.643,5.489,6.643,7.901C405.798,51.073,404.742,52.328,399.155,56.561z"/>
	<path style="fill:#231F20;" d="M273.102,441.682h-1.1c-6.074,0-11,4.924-11,11s4.926,11,11,11h1.1c6.074,0,11-4.924,11-11
		S279.178,441.682,273.102,441.682z"/>
</g>
</svg>